<mxfile host="app.diagrams.net" modified="2023-11-18T11:52:45.712Z" agent="Mozilla/5.0 (Windows NT 10.0; Win64; x64) AppleWebKit/537.36 (KHTML, like Gecko) Chrome/119.0.0.0 Safari/537.36 Edg/119.0.0.0" version="22.1.3" etag="DQSHX3QomZ8sCc4AJ4vj" type="google">
  <diagram id="5AU-Ouc1D454f0sWIoz8" name="Page-1">
    <mxGraphModel grid="1" page="0" gridSize="10" guides="1" tooltips="1" connect="1" arrows="1" fold="1" pageScale="1" pageWidth="1200" pageHeight="1920" background="none" math="0" shadow="0">
      <root>
        <mxCell id="0" />
        <mxCell id="1" parent="0" />
        <mxCell id="KGVf0KV-dNTQRU8g9l62-8" value="api" style="shape=folder;fontStyle=1;tabWidth=110;tabHeight=30;tabPosition=left;html=1;boundedLbl=1;labelInHeader=1;container=1;collapsible=0;whiteSpace=wrap;strokeWidth=4;fontSize=20;" vertex="1" parent="1">
          <mxGeometry x="-1210" y="-260" width="670" height="810" as="geometry" />
        </mxCell>
        <mxCell id="KGVf0KV-dNTQRU8g9l62-9" value="" style="html=1;strokeColor=none;resizeWidth=1;resizeHeight=1;fillColor=none;part=1;connectable=0;allowArrows=0;deletable=0;whiteSpace=wrap;" vertex="1" parent="KGVf0KV-dNTQRU8g9l62-8">
          <mxGeometry width="670" height="567" relative="1" as="geometry">
            <mxPoint y="30" as="offset" />
          </mxGeometry>
        </mxCell>
        <mxCell id="KGVf0KV-dNTQRU8g9l62-1" value="onemap" style="shape=folder;fontStyle=1;tabWidth=110;tabHeight=30;tabPosition=left;html=1;boundedLbl=1;labelInHeader=1;container=1;collapsible=0;whiteSpace=wrap;fontSize=20;" vertex="1" parent="KGVf0KV-dNTQRU8g9l62-8">
          <mxGeometry x="279" y="50" width="374" height="310" as="geometry" />
        </mxCell>
        <mxCell id="KGVf0KV-dNTQRU8g9l62-2" value="" style="html=1;strokeColor=none;resizeWidth=1;resizeHeight=1;fillColor=none;part=1;connectable=0;allowArrows=0;deletable=0;whiteSpace=wrap;" vertex="1" parent="KGVf0KV-dNTQRU8g9l62-1">
          <mxGeometry width="374" height="217.00000000000003" relative="1" as="geometry">
            <mxPoint y="30" as="offset" />
          </mxGeometry>
        </mxCell>
        <mxCell id="node2" value="&lt;p style=&quot;margin:0px;margin-top:4px;text-align:center;&quot;&gt;&lt;i&gt;&amp;lt;&amp;lt;interface&amp;gt;&amp;gt;&lt;/i&gt;&lt;br/&gt;&lt;b&gt;OneMapApi&lt;/b&gt;&lt;/p&gt;&lt;hr size=&quot;1&quot;/&gt;&lt;p style=&quot;margin:0 0 0 4px;line-height:1.6;&quot;&gt;+ suspend  search(String): IOFlow&amp;lt;Location&amp;gt;&lt;/p&gt;" style="verticalAlign=top;align=left;overflow=fill;fontSize=14;fontFamily=Helvetica;html=1;rounded=0;shadow=0;comic=0;labelBackgroundColor=none;strokeWidth=1;" vertex="1" parent="KGVf0KV-dNTQRU8g9l62-1">
          <mxGeometry x="47.5" y="216" width="314" height="79" as="geometry" />
        </mxCell>
        <mxCell id="node3" value="&lt;p style=&quot;margin:0px;margin-top:4px;text-align:center;&quot;&gt;&lt;b&gt;OneMapApiImpl&lt;/b&gt;&lt;/p&gt;&lt;hr size=&quot;1&quot;&gt;&lt;p style=&quot;margin:0 0 0 4px;line-height:1.6;&quot;&gt;+ suspend  search(String): IOFlow&amp;lt;Location&amp;gt;&lt;br&gt;- suspend  request(String, Int): RawSearchResponse&lt;/p&gt;&lt;hr size=&quot;1&quot;&gt;&lt;p style=&quot;margin:0 0 0 4px;line-height:1.6;&quot;&gt;- service: Service&lt;br&gt;- jsonFactory: Factory&lt;/p&gt;" style="verticalAlign=top;align=left;overflow=fill;fontSize=14;fontFamily=Helvetica;html=1;rounded=0;shadow=0;comic=0;labelBackgroundColor=none;strokeWidth=1;" vertex="1" parent="KGVf0KV-dNTQRU8g9l62-1">
          <mxGeometry x="7.5" y="40" width="359" height="147" as="geometry" />
        </mxCell>
        <mxCell id="edge1" value="" style="html=1;rounded=1;edgeStyle=orthogonalEdgeStyle;dashed=1;startArrow=none;endArrow=block;endSize=12;strokeColor=#008200;exitX=0.549;exitY=1.000;exitDx=0;exitDy=0;entryX=0.500;entryY=0.001;entryDx=0;entryDy=0;" edge="1" parent="KGVf0KV-dNTQRU8g9l62-1" source="node3" target="node2">
          <mxGeometry width="50" height="50" relative="1" as="geometry">
            <Array as="points" />
          </mxGeometry>
        </mxCell>
        <mxCell id="KGVf0KV-dNTQRU8g9l62-4" value="firebase" style="shape=folder;fontStyle=1;tabWidth=110;tabHeight=30;tabPosition=left;html=1;boundedLbl=1;labelInHeader=1;container=1;collapsible=0;whiteSpace=wrap;fontSize=20;" vertex="1" parent="KGVf0KV-dNTQRU8g9l62-8">
          <mxGeometry x="15" y="229" width="150" height="100" as="geometry" />
        </mxCell>
        <mxCell id="KGVf0KV-dNTQRU8g9l62-5" value="" style="html=1;strokeColor=none;resizeWidth=1;resizeHeight=1;fillColor=none;part=1;connectable=0;allowArrows=0;deletable=0;whiteSpace=wrap;" vertex="1" parent="KGVf0KV-dNTQRU8g9l62-4">
          <mxGeometry width="150" height="70" relative="1" as="geometry">
            <mxPoint y="30" as="offset" />
          </mxGeometry>
        </mxCell>
        <mxCell id="node4" value="&lt;p style=&quot;margin:0px;margin-top:4px;text-align:center;&quot;&gt;&lt;i&gt;&amp;lt;&amp;lt;interface&amp;gt;&amp;gt;&lt;/i&gt;&lt;br/&gt;&lt;b&gt;FirebaseApi&lt;/b&gt;&lt;/p&gt;&lt;hr size=&quot;1&quot;/&gt;" style="verticalAlign=top;align=left;overflow=fill;fontSize=14;fontFamily=Helvetica;html=1;rounded=0;shadow=0;comic=0;labelBackgroundColor=none;strokeWidth=1;" vertex="1" parent="KGVf0KV-dNTQRU8g9l62-4">
          <mxGeometry x="4.5" y="40" width="141" height="35" as="geometry" />
        </mxCell>
        <mxCell id="KGVf0KV-dNTQRU8g9l62-6" value="pip" style="shape=folder;fontStyle=1;tabWidth=110;tabHeight=30;tabPosition=left;html=1;boundedLbl=1;labelInHeader=1;container=1;collapsible=0;whiteSpace=wrap;fontSize=20;" vertex="1" parent="KGVf0KV-dNTQRU8g9l62-8">
          <mxGeometry x="15" y="350" width="640" height="450" as="geometry" />
        </mxCell>
        <mxCell id="KGVf0KV-dNTQRU8g9l62-7" value="" style="html=1;strokeColor=none;resizeWidth=1;resizeHeight=1;fillColor=none;part=1;connectable=0;allowArrows=0;deletable=0;whiteSpace=wrap;" vertex="1" parent="KGVf0KV-dNTQRU8g9l62-6">
          <mxGeometry width="640" height="315" relative="1" as="geometry">
            <mxPoint y="30" as="offset" />
          </mxGeometry>
        </mxCell>
        <mxCell id="node0" value="&lt;p style=&quot;margin:0px;margin-top:4px;text-align:center;&quot;&gt;&lt;i&gt;&amp;lt;&amp;lt;interface&amp;gt;&amp;gt;&lt;/i&gt;&lt;br/&gt;&lt;b&gt;PipApi&lt;/b&gt;&lt;/p&gt;&lt;hr size=&quot;1&quot;/&gt;&lt;p style=&quot;margin:0 0 0 4px;line-height:1.6;&quot;&gt;+ suspend  getCarparkAvailability(String, Coordinate?, Boolean): CarparkAvailability&lt;br/&gt;+ suspend  queryNearby(Coordinate, Coordinate?, Int, Boolean): IOFlow&amp;lt;CarparkAvailability&amp;gt;&lt;br/&gt;+ suspend  ping(): Boolean&lt;br/&gt;+ suspend  getCarpark(String): Carpark&lt;/p&gt;" style="verticalAlign=top;align=left;overflow=fill;fontSize=14;fontFamily=Helvetica;html=1;rounded=0;shadow=0;comic=0;labelBackgroundColor=none;strokeWidth=1;" vertex="1" parent="KGVf0KV-dNTQRU8g9l62-6">
          <mxGeometry x="14.5" y="274" width="610" height="160" as="geometry" />
        </mxCell>
        <mxCell id="node1" value="&lt;p style=&quot;margin:0px;margin-top:4px;text-align:center;&quot;&gt;&lt;b&gt;PipApiImpl&lt;/b&gt;&lt;/p&gt;&lt;hr size=&quot;1&quot;&gt;&lt;p style=&quot;margin:0 0 0 4px;line-height:1.6;&quot;&gt;+ suspend  getCarparkAvailability(String, Coordinate?, Boolean): CarparkAvailability&lt;br&gt;+ suspend  ping(): Boolean&lt;br&gt;+ suspend  queryNearby(Coordinate, Coordinate?, Int, Boolean): IOFlow&amp;lt;CarparkAvailability&amp;gt;&lt;br&gt;+ suspend  getCarpark(String): Carpark&lt;/p&gt;&lt;hr size=&quot;1&quot;&gt;&lt;p style=&quot;margin:0 0 0 4px;line-height:1.6;&quot;&gt;- service: Service&lt;br&gt;- jsonFactory: Factory&lt;/p&gt;" style="verticalAlign=top;align=left;overflow=fill;fontSize=14;fontFamily=Helvetica;html=1;rounded=0;shadow=0;comic=0;labelBackgroundColor=none;strokeWidth=1;" vertex="1" parent="KGVf0KV-dNTQRU8g9l62-6">
          <mxGeometry x="15.5" y="50" width="610" height="184" as="geometry" />
        </mxCell>
        <mxCell id="edge0" value="" style="html=1;rounded=1;edgeStyle=orthogonalEdgeStyle;dashed=1;startArrow=none;endArrow=block;endSize=12;strokeColor=#008200;exitX=0.5;exitY=1;exitDx=0;exitDy=0;entryX=0.500;entryY=0.000;entryDx=0;entryDy=0;" edge="1" parent="KGVf0KV-dNTQRU8g9l62-6" source="node1" target="node0">
          <mxGeometry width="50" height="50" relative="1" as="geometry">
            <Array as="points" />
          </mxGeometry>
        </mxCell>
      </root>
    </mxGraphModel>
  </diagram>
</mxfile>
